<svg width="189" height="189" viewBox="0 0 189 189" fill="none" xmlns="http://www.w3.org/2000/svg">
<path d="M173.471 94.8526C173.471 138.476 138.107 173.84 94.4835 173.84C50.86 173.84 15.4961 138.476 15.4961 94.8526C15.4961 51.2291 50.86 15.8652 94.4835 15.8652C138.107 15.8652 173.471 51.2291 173.471 94.8526ZM43.9316 94.8526C43.9316 122.772 66.5644 145.405 94.4835 145.405C122.403 145.405 145.035 122.772 145.035 94.8526C145.035 66.9336 122.403 44.3007 94.4835 44.3007C66.5644 44.3007 43.9316 66.9336 43.9316 94.8526Z" fill="#FF8901"/>
<path d="M71.0526 170.285C59.2234 166.61 48.4242 160.205 39.5271 151.587C30.6301 142.969 23.8846 132.379 19.8355 120.673C15.7864 108.967 14.5472 96.4722 16.2179 84.1987C17.8886 71.9252 22.4225 60.2166 29.4533 50.0186C36.4842 39.8207 45.8148 31.4192 56.6918 25.4927C67.5687 19.5663 79.687 16.281 92.068 15.9022C104.449 15.5234 116.745 18.0617 127.964 23.3121C139.183 28.5625 149.01 36.3779 156.651 46.127L134.271 63.6682C129.38 57.4288 123.091 52.427 115.911 49.0667C108.731 45.7064 100.861 44.0819 92.9376 44.3243C85.0138 44.5668 77.2581 46.6694 70.2968 50.4623C63.3356 54.2552 57.3639 59.6322 52.8642 66.1589C48.3645 72.6856 45.4628 80.1791 44.3935 88.0341C43.3242 95.8892 44.1174 103.886 46.7088 111.378C49.3002 118.87 53.6173 125.647 59.3114 131.163C65.0055 136.678 71.917 140.778 79.4877 143.129L71.0526 170.285Z" fill="#00C3F8"/>
<path d="M71.091 170.297C54.2241 165.067 39.5962 154.336 29.5436 139.817C19.4909 125.299 14.5934 107.83 15.6331 90.2019C16.6729 72.5734 23.59 55.8018 35.2797 42.5657C46.9694 29.3296 62.7574 20.3925 80.1221 17.1818L85.2922 45.1433C74.1788 47.1982 64.0745 52.9179 56.5931 61.389C49.1117 69.8601 44.6847 80.5939 44.0193 91.8761C43.3538 103.158 46.4882 114.338 52.922 123.63C59.3557 132.922 68.7175 139.79 79.5123 143.137L71.091 170.297Z" fill="#2F80ED"/>
<path d="M94.486 188.979C69.5221 188.979 45.5806 179.062 27.9285 161.41C10.2763 143.758 0.359391 119.816 0.359375 94.8526L43.9321 94.8525C43.9321 108.26 49.2583 121.119 58.739 130.6C68.2197 140.08 81.0783 145.406 94.486 145.406L94.486 188.979Z" fill="#FF392B"/>
<path d="M85.1348 88.6376V100.99H82.8971V90.815H82.8247L79.9355 92.6607V90.6099L83.0056 88.6376H85.1348ZM92.5659 101.159C91.7616 101.159 91.0419 101.009 90.4065 100.707C89.7712 100.401 89.2665 99.9832 88.8926 99.4524C88.5226 98.9216 88.3256 98.3144 88.3015 97.6308H90.4729C90.5131 98.1375 90.7322 98.5517 91.1303 98.8734C91.5284 99.191 92.0069 99.3499 92.5659 99.3499C93.0042 99.3499 93.3942 99.2493 93.736 99.0483C94.0778 98.8472 94.3472 98.5677 94.5443 98.2099C94.7413 97.852 94.8378 97.4438 94.8338 96.9854C94.8378 96.519 94.7393 96.1048 94.5382 95.7429C94.3372 95.381 94.0617 95.0975 93.7119 94.8924C93.3621 94.6833 92.9599 94.5788 92.5056 94.5788C92.1356 94.5748 91.7717 94.6431 91.4138 94.7839C91.0559 94.9246 90.7724 95.1096 90.5633 95.3388L88.5427 95.007L89.1881 88.6376H96.3538V90.5074H91.0398L90.684 93.7826H90.7564C90.9856 93.5132 91.3093 93.29 91.7275 93.1131C92.1457 92.9321 92.6041 92.8417 93.1027 92.8417C93.8506 92.8417 94.5181 93.0186 95.1052 93.3724C95.6923 93.7223 96.1547 94.2048 96.4925 94.8201C96.8303 95.4353 96.9992 96.139 96.9992 96.9311C96.9992 97.7474 96.8102 98.4753 96.4322 99.1146C96.0582 99.75 95.5375 100.251 94.87 100.617C94.2065 100.978 93.4385 101.159 92.5659 101.159ZM103.586 101.226C102.593 101.226 101.74 100.974 101.028 100.472C100.321 99.9651 99.7758 99.2353 99.3938 98.2822C99.0158 97.3252 98.8268 96.1732 98.8268 94.8261C98.8308 93.479 99.0218 92.333 99.3998 91.388C99.7818 90.439 100.327 89.7152 101.034 89.2166C101.746 88.718 102.597 88.4687 103.586 88.4687C104.575 88.4687 105.425 88.718 106.137 89.2166C106.849 89.7152 107.394 90.439 107.772 91.388C108.154 92.337 108.345 93.483 108.345 94.8261C108.345 96.1772 108.154 97.3312 107.772 98.2883C107.394 99.2413 106.849 99.9691 106.137 100.472C105.429 100.974 104.579 101.226 103.586 101.226ZM103.586 99.3378C104.358 99.3378 104.967 98.9578 105.413 98.1978C105.864 97.4338 106.089 96.3099 106.089 94.8261C106.089 93.8449 105.986 93.0206 105.781 92.3531C105.576 91.6856 105.287 91.1829 104.913 90.8452C104.539 90.5034 104.096 90.3325 103.586 90.3325C102.818 90.3325 102.211 90.7145 101.764 91.4785C101.318 92.2385 101.093 93.3543 101.089 94.8261C101.085 95.8113 101.183 96.6396 101.384 97.3111C101.589 97.9827 101.879 98.4893 102.253 98.8311C102.627 99.1689 103.071 99.3378 103.586 99.3378Z" fill="#1C2A53"/>
</svg>
