<svg width="4" height="17" viewBox="0 0 4 17" fill="none" xmlns="http://www.w3.org/2000/svg">
<path fill-rule="evenodd" clip-rule="evenodd" d="M0.308594 1.76612C0.308594 0.790666 1.09934 -0.00012207 2.07484 -0.00012207C3.05033 -0.00012207 3.84108 0.790666 3.84108 1.76612C3.84108 2.74158 3.05033 3.53237 2.07484 3.53237C1.09934 3.53237 0.308594 2.74158 0.308594 1.76612ZM0.308594 8.49993C0.308594 7.52444 1.09935 6.73368 2.07484 6.73368C3.05032 6.73368 3.84108 7.52444 3.84108 8.49993C3.84108 9.47542 3.05032 10.2662 2.07484 10.2662C1.09935 10.2662 0.308594 9.47542 0.308594 8.49993ZM0.308594 15.2337C0.308594 14.2582 1.09935 13.4675 2.07484 13.4675C3.05032 13.4675 3.84108 14.2582 3.84108 15.2337C3.84108 16.2092 3.05032 17 2.07484 17C1.09935 17 0.308594 16.2092 0.308594 15.2337Z" fill="#292D32"/>
</svg>
